<svg xmlns="http://www.w3.org/2000/svg" viewBox="0 0 120 120">
  <rect width="120" height="120" fill="#fff"/>
  <rect x="5" y="5" width="32" height="32" fill="none" stroke="#000" stroke-width="5"/>
  <rect x="83" y="5" width="32" height="32" fill="none" stroke="#000" stroke-width="5"/>
  <rect x="5" y="83" width="32" height="32" fill="none" stroke="#000" stroke-width="5"/>
  <rect x="20" y="20" width="12" height="12" fill="#000"/>
  <rect x="98" y="20" width="12" height="12" fill="#000"/>
  <rect x="20" y="98" width="12" height="12" fill="#000"/>
  <rect x="45" y="45" width="10" height="10" fill="#000"/>
  <rect x="60" y="45" width="5" height="5" fill="#000"/>
  <rect x="70" y="45" width="8" height="8" fill="#000"/>
  <rect x="45" y="60" width="5" height="5" fill="#000"/>
  <rect x="52" y="60" width="10" height="10" fill="#000"/>
  <rect x="70" y="60" width="5" height="5" fill="#000"/>
  <rect x="60" y="75" width="10" height="10" fill="#000"/>
  <rect x="75" y="75" width="10" height="10" fill="#000"/>
  <rect x="90" y="60" width="8" height="8" fill="#000"/>
  <rect x="60" y="20" width="8" height="8" fill="#000"/>
  <rect x="75" y="30" width="5" height="5" fill="#000"/>
  <rect x="45" y="90" width="8" height="8" fill="#000"/>
  <rect x="60" y="98" width="5" height="5" fill="#000"/>
  <rect x="80" y="90" width="8" height="8" fill="#000"/>
</svg>

